<svg width="26" height="26" viewBox="0 0 26 26" fill="none" xmlns="http://www.w3.org/2000/svg">
<path d="M22.6409 9.75065H21.7783C21.6668 9.26455 21.4774 8.79988 21.2176 8.37482L21.8214 7.76815C21.9981 7.56091 22.0904 7.29433 22.0799 7.02168C22.0694 6.74903 21.9569 6.49039 21.7649 6.29746C21.5729 6.10452 21.3154 5.99149 21.0441 5.98096C20.7727 5.97043 20.5074 6.06317 20.3011 6.24065L19.6973 6.84732C19.2743 6.58625 18.8118 6.39599 18.328 6.28398V5.41732C18.328 5.13 18.2144 4.85445 18.0122 4.65129C17.81 4.44812 17.5357 4.33398 17.2498 4.33398C16.9638 4.33398 16.6896 4.44812 16.4874 4.65129C16.2852 4.85445 16.1716 5.13 16.1716 5.41732V6.28398C15.6906 6.39428 15.2314 6.58469 14.813 6.84732L14.1984 6.24065C13.9922 6.06317 13.7268 5.97043 13.4555 5.98096C13.1841 5.99149 12.9267 6.10452 12.7347 6.29746C12.5427 6.49039 12.4302 6.74903 12.4197 7.02168C12.4092 7.29433 12.5015 7.56091 12.6781 7.76815L13.2819 8.38565C13.1849 8.54815 13.1094 8.73232 13.0232 8.90565C12.4688 8.74842 11.8956 8.66823 11.3196 8.66732C9.76572 8.66643 8.26345 9.22751 7.08745 10.248C5.91145 11.2684 5.14029 12.6801 4.91498 14.2248C4.03752 14.472 3.27874 15.03 2.77878 15.7955C2.27882 16.561 2.07146 17.4825 2.195 18.3897C2.31854 19.2968 2.76464 20.1285 3.45089 20.7309C4.13714 21.3334 5.01719 21.666 5.9285 21.6673H15.8157C17.054 21.6673 18.2415 21.1731 19.117 20.2934C19.9925 19.4137 20.4844 18.2206 20.4844 16.9765C20.4835 16.4012 20.3737 15.8314 20.161 15.2973L20.3011 15.4273C20.502 15.6275 20.773 15.7403 21.0559 15.7415C21.1978 15.7423 21.3384 15.715 21.4698 15.6611C21.6012 15.6072 21.7207 15.5277 21.8214 15.4273C22.0222 15.2243 22.135 14.9498 22.135 14.6636C22.135 14.3774 22.0222 14.1028 21.8214 13.8998L21.2176 13.2932C21.4774 12.8681 21.6668 12.4034 21.7783 11.9173H22.6409C22.9268 11.9173 23.2011 11.8032 23.4033 11.6C23.6055 11.3969 23.7191 11.1213 23.7191 10.834C23.7191 10.5467 23.6055 10.2711 23.4033 10.068C23.2011 9.86479 22.9268 9.75065 22.6409 9.75065ZM15.8157 19.5007H5.9285C5.49956 19.5007 5.08819 19.3294 4.78488 19.0247C4.48157 18.72 4.31118 18.3066 4.31118 17.8757C4.31118 17.4447 4.48157 17.0313 4.78488 16.7266C5.08819 16.4219 5.49956 16.2507 5.9285 16.2507C6.21446 16.2507 6.48871 16.1365 6.69092 15.9334C6.89312 15.7302 7.00672 15.4546 7.00672 15.1673C7.01134 14.1443 7.37603 13.156 8.03624 12.3772C8.69645 11.5984 9.6096 11.0794 10.6141 10.912C11.6185 10.7447 12.6495 10.9398 13.5246 11.4628C14.3996 11.9859 15.0623 12.8031 15.3952 13.7698C15.4569 13.956 15.5677 14.1218 15.7158 14.2497C15.8639 14.3775 16.0438 14.4625 16.2363 14.4957C16.8482 14.6106 17.396 14.9498 17.7732 15.4475C18.1504 15.9451 18.3303 16.5658 18.2779 17.1891C18.2255 17.8125 17.9446 18.3941 17.4897 18.8212C17.0348 19.2482 16.4383 19.4904 15.8157 19.5007ZM19.0504 12.6215C18.8603 12.8012 18.6417 12.9476 18.4035 13.0548C18.0449 12.8202 17.657 12.6344 17.2498 12.5023C16.7544 11.4155 15.9758 10.4834 14.9963 9.80482C15.1141 9.52693 15.2823 9.27346 15.4923 9.05732C15.9747 8.60809 16.6082 8.35849 17.2659 8.35849C17.9237 8.35849 18.5572 8.60809 19.0396 9.05732V9.05732C19.502 9.53636 19.7606 10.1775 19.7606 10.8448C19.7606 11.5122 19.502 12.1533 19.0396 12.6323L19.0504 12.6215Z" fill="white"/>
</svg>
